# xmcd
#
# Track frame offsets:
# 150
# 12922
# 35055
# 51455
# 77122
# 106222
# 127432
# 141310
# 176377
# 192172
# 225182
#
# Disc length: 3295 seconds
#
#
# Revision: 2
# Processed by: cddbd v1.5.1PL0 Copyright (c) Steve Scherf et al.
# Submitted via: FreeRIP 2.94 
#
DISCID=950cdd0b
DTITLE=Muddy Waters - Chicago Blues
DYEAR=1900
DGENRE=
TTITLE0=Baby, Please Don't Go
TTITLE1=Soon Forgotten
TTITLE2=Corinne, Corrina
TTITLE3=After Hours
TTITLE4=Howlin' Wolf
TTITLE5=Junior Shuffle
TTITLE6=I'm Your Hoochie Coochie Man
TTITLE7=Floyd's Guitar Blues
TTITLE8=J.P. Boogie
TTITLE9=Goin' Down Slow
TTITLE10=What's the Matter with the Mill?
EXTD=
EXTT0=
EXTT1=
EXTT2=
EXTT3=
EXTT4=
EXTT5=
EXTT6=
EXTT7=
EXTT8=
EXTT9=
EXTT10=
PLAYORDER=
